# xmcd CD database file
# Copyright (C) 1993-1996 Ti Kan
#
# Track frame offsets:
#  182
#  15942
#  31427
#  49317
#  64905
#  84107
#  99022
#  112615
#  125360
#  140140
#
# Disc length: 2112 seconds
#
# Revision: 5
# Processed by: cddbd v1.5.2PL0 Copyright (c) Steve Scherf et al.
# Submitted via: Advanced CD Ripper Pro 2.0
#
DISCID=72083e0a
DTITLE=Various Artist - Great Wedding Songs
DYEAR=2003
DGENRE=
TTITLE0=Kenny Rogers - The Vows Go Unbroken
TTITLE1=Kathie Lee Gifford - That's All
TTITLE2=Eddie Rabbit and Crystal Gayle - You And I
TTITLE3=Crystal Gayle - A Long And Lasting Love
TTITLE4=Beth Nielson Chapman - All I Have
TTITLE5=Gene Watson - At Last
TTITLE6=Emmylou Harris - Pledging My Love
TTITLE7=Kenny Rogers - I'll Be There For You
TTITLE8=Kathie Lee Gifford - True Love
TTITLE9=Crystal Gayle and Gary Morris - There's No Love Like Our Love
EXTD=
EXTT0=
EXTT1=
EXTT2=
EXTT3=
EXTT4=
EXTT5=
EXTT6=
EXTT7=
EXTT8=
EXTT9=
PLAYORDER=
